<svg width="100" height="35" viewBox="0 0 145 40" fill="none" xmlns="http://www.w3.org/2000/svg">
<path d="M14.72 5.16L5.96 32.04V32C5.8 32.4 5.57333 32.7333 5.28 33C5.01333 33.24 4.68 33.36 4.28 33.36C4.06667 33.36 3.85333 33.3333 3.64 33.28C3.45333 33.2533 3.25333 33.2133 3.04 33.16H3.08C1.56 32.68 1 31.8267 1.4 30.6L10.52 2.88C10.6533 2.45333 10.88 2.09333 11.2 1.8C11.5467 1.50667 11.9467 1.33333 12.4 1.28C12.8533 1.2 13.2933 1.14666 13.72 1.12C14.1467 1.06667 14.48 1.04 14.72 1.04C14.96 1.04 15.2933 1.06667 15.72 1.12C16.1467 1.14666 16.5867 1.18666 17.04 1.24C17.4133 1.29333 17.7733 1.49333 18.12 1.84C18.4933 2.18667 18.7733 2.53333 18.96 2.88C20.4533 7.46667 21.96 12.0933 23.48 16.76C25.0267 21.4 26.5467 26.0133 28.04 30.6C28.4133 31.8267 27.8533 32.68 26.36 33.16C26.1467 33.2133 25.9467 33.2533 25.76 33.28C25.6 33.3333 25.4133 33.36 25.2 33.36C24.8267 33.36 24.48 33.24 24.16 33C23.8667 32.7333 23.6533 32.4 23.52 32V32.04L14.72 5.16ZM17.72 23.4C17.72 24.2533 17.4133 24.9867 16.8 25.6C16.2133 26.1867 15.4933 26.48 14.64 26.48C13.7867 26.48 13.0667 26.1867 12.48 25.6C11.8933 24.9867 11.6 24.2533 11.6 23.4C11.6 22.5467 11.8933 21.8267 12.48 21.24C13.0667 20.6267 13.7867 20.32 14.64 20.32C15.4933 20.32 16.2133 20.6267 16.8 21.24C17.4133 21.8267 17.72 22.5467 17.72 23.4ZM39.3419 33C38.3819 33 37.8752 32.3733 37.8219 31.12C37.8219 29.8667 38.3285 29.24 39.3419 29.24H43.3819C44.3685 29.24 45.0619 28.96 45.4619 28.4C45.8885 27.84 46.1019 27.24 46.1019 26.6V15.32C46.1019 14.6533 45.8885 14.04 45.4619 13.48C45.0619 12.8933 44.3552 12.6267 43.3419 12.68H35.6619V36.72C35.6619 37.9733 34.9285 38.6 33.4619 38.6C31.9952 38.6 31.2619 37.96 31.2619 36.68V11.28C31.2619 10.3467 31.5019 9.72 31.9819 9.4C32.4619 9.08 33.0485 8.92 33.7419 8.92H44.1019C44.7952 8.92 45.4885 9.04 46.1819 9.28C46.9019 9.52 47.6352 9.85333 48.3819 10.28C49.0219 10.7333 49.5285 11.3733 49.9019 12.2C50.3019 13 50.5019 13.9467 50.5019 15.04V26.88C50.5019 29.0667 49.7952 30.6267 48.3819 31.56C46.8885 32.52 45.4619 33 44.1019 33H39.3419ZM63.5997 33C62.6397 33 62.133 32.3733 62.0797 31.12C62.0797 29.8667 62.5864 29.24 63.5997 29.24H67.6397C68.6264 29.24 69.3197 28.96 69.7197 28.4C70.1464 27.84 70.3597 27.24 70.3597 26.6V15.32C70.3597 14.6533 70.1464 14.04 69.7197 13.48C69.3197 12.8933 68.613 12.6267 67.5997 12.68H59.9197V36.72C59.9197 37.9733 59.1864 38.6 57.7197 38.6C56.253 38.6 55.5197 37.96 55.5197 36.68V11.28C55.5197 10.3467 55.7597 9.72 56.2397 9.4C56.7197 9.08 57.3064 8.92 57.9997 8.92H68.3597C69.053 8.92 69.7464 9.04 70.4397 9.28C71.1597 9.52 71.893 9.85333 72.6397 10.28C73.2797 10.7333 73.7864 11.3733 74.1597 12.2C74.5597 13 74.7597 13.9467 74.7597 15.04V26.88C74.7597 29.0667 74.053 30.6267 72.6397 31.56C71.1464 32.52 69.7197 33 68.3597 33H63.5997ZM84.9775 33.92C84.9775 36.1333 84.3242 37.6667 83.0175 38.52V38.48C82.3242 38.88 81.6042 39.1867 80.8575 39.4C80.1375 39.64 79.3508 39.76 78.4975 39.76H77.5375C76.5508 39.76 76.0575 39.1467 76.0575 37.92C76.0308 37.3067 76.1508 36.84 76.4175 36.52C76.6842 36.2 77.0575 36.04 77.5375 36.04H78.1775C79.1375 36.04 79.7642 35.84 80.0575 35.44C80.3775 35.0667 80.5375 34.56 80.5375 33.92V10.64C80.5375 9.36 81.2708 8.72 82.7375 8.72C84.2308 8.72 84.9775 9.36 84.9775 10.64V33.92ZM85.6575 3.72C85.6575 4.57333 85.3508 5.29333 84.7375 5.88C84.1508 6.46667 83.4308 6.76 82.5775 6.76C81.7242 6.76 81.0042 6.46667 80.4175 5.88C79.8308 5.29333 79.5375 4.57333 79.5375 3.72C79.5375 2.84 79.8308 2.10666 80.4175 1.52C81.0042 0.933332 81.7242 0.639999 82.5775 0.639999C83.4308 0.639999 84.1508 0.933332 84.7375 1.52C85.3508 2.10666 85.6575 2.84 85.6575 3.72ZM96.6769 33C95.8502 33 95.0635 32.8933 94.3169 32.68C93.5702 32.44 92.8502 32.1067 92.1569 31.68V31.72C90.8502 30.8933 90.1969 29.3733 90.1969 27.16V25.2C90.1969 24.1067 90.3835 23.16 90.7569 22.36C91.1569 21.5333 91.7035 20.88 92.3969 20.4H92.3569C93.0235 19.9467 93.7302 19.6133 94.4769 19.4C95.2235 19.16 95.9435 19.04 96.6369 19.04H105.477V15.32C105.477 14.6533 105.264 14.0533 104.837 13.52C104.437 12.96 103.744 12.68 102.757 12.68H98.0769C97.0635 12.68 96.3569 12.9333 95.9569 13.44C95.5835 13.92 95.3969 14.4933 95.3969 15.16V15.48C95.3969 16.8667 94.6502 17.56 93.1569 17.56C91.6635 17.56 90.9169 16.8667 90.9169 15.48V15.12C90.9169 14.0267 91.1035 13.1067 91.4769 12.36C91.8769 11.6133 92.4102 10.9867 93.0769 10.48H93.0369C93.7302 10.0267 94.4502 9.65333 95.1969 9.36C95.9702 9.06666 96.7035 8.92 97.3969 8.92H103.477C104.144 8.92 104.85 9.06666 105.597 9.36C106.37 9.65333 107.09 10.0267 107.757 10.48H107.717C108.41 10.9867 108.944 11.6533 109.317 12.48C109.69 13.28 109.877 14.2133 109.877 15.28V31.32C109.877 32.6 109.144 33.24 107.677 33.24C107.384 33.24 107.104 33.2267 106.837 33.2C106.597 33.1733 106.37 33.1067 106.157 33C105.97 32.8667 105.81 32.6933 105.677 32.48C105.57 32.24 105.517 31.9333 105.517 31.56L105.477 22.8H97.3969C96.8102 22.8 96.3569 22.8667 96.0369 23C95.7169 23.1333 95.4635 23.3467 95.2769 23.64C95.0635 24.0933 94.9035 24.4533 94.7969 24.72C94.7169 24.96 94.6769 25.24 94.6769 25.56V27.12C94.6769 27.8133 94.8769 28.3467 95.2769 28.72C95.7035 29.0667 96.4235 29.24 97.4369 29.24H101.917C102.904 29.24 103.397 29.8667 103.397 31.12C103.397 31.6533 103.277 32.1067 103.037 32.48C102.797 32.8267 102.424 33 101.917 33H96.6769ZM127.451 15.6C127.451 15.2533 127.398 14.92 127.291 14.6C127.184 14.2533 127.051 13.9333 126.891 13.64C126.544 13 125.824 12.68 124.731 12.68H122.171C121.078 12.68 120.344 13 119.971 13.64C119.651 14.2533 119.491 14.9067 119.491 15.6V31.44C119.491 32.6933 118.758 33.32 117.291 33.32C115.771 33.32 115.011 32.6933 115.011 31.44V15.24C115.011 13.0533 115.731 11.4533 117.171 10.44C118.638 9.42666 120.064 8.92 121.451 8.92H125.491C126.104 8.92 126.784 9.04 127.531 9.28C128.278 9.52 128.998 9.89333 129.691 10.4C130.358 9.89333 131.051 9.52 131.771 9.28C132.518 9.04 133.224 8.92 133.891 8.92H137.891C139.304 8.92 140.718 9.42666 142.131 10.44C143.598 11.4267 144.331 13.0267 144.331 15.24V31.44C144.331 32.6933 143.584 33.32 142.091 33.32C140.598 33.32 139.851 32.6933 139.851 31.44V15.6C139.851 15.2533 139.811 14.9067 139.731 14.56C139.651 14.2133 139.504 13.8933 139.291 13.6L139.331 13.64C139.118 13.2933 138.851 13.0533 138.531 12.92C138.211 12.76 137.744 12.68 137.131 12.68H134.611C133.491 12.68 132.758 13 132.411 13.64C132.064 14.2267 131.891 14.88 131.891 15.6V31.44C131.891 32.6933 131.158 33.32 129.691 33.32C128.198 33.32 127.451 32.6933 127.451 31.44V15.6Z" fill="#4E3CF0"/>
</svg>
