<svg width="23" height="22" viewBox="0 0 23 22" fill="none" xmlns="http://www.w3.org/2000/svg">
<path d="M21.1147 16.1737L18.0252 8.95822C16.9789 6.51029 15.0541 6.41158 13.761 8.74106L11.8955 12.107C10.9479 13.8146 9.18108 13.9627 7.95712 12.4327L7.73996 12.1563C6.46664 10.5573 4.67018 10.7547 3.75221 12.5808L2.05445 15.9862C0.8601 18.3551 2.58747 21.1485 5.23281 21.1485H17.8278C20.3941 21.1485 22.1215 18.5328 21.1147 16.1737Z" stroke="#636363" stroke-width="1.54" stroke-linecap="round" stroke-linejoin="round"/>
<path d="M6.59499 7.32969C8.23041 7.32969 9.55619 6.00391 9.55619 4.36849C9.55619 2.73307 8.23041 1.40729 6.59499 1.40729C4.95957 1.40729 3.63379 2.73307 3.63379 4.36849C3.63379 6.00391 4.95957 7.32969 6.59499 7.32969Z" stroke="#636363" stroke-width="1.54" stroke-linecap="round" stroke-linejoin="round"/>
</svg>
