<svg width="30" height="30" viewBox="0 0 30 30" fill="none" xmlns="http://www.w3.org/2000/svg">
<rect x="1" y="28.0223" width="27.0223" height="27.35" rx="3" transform="rotate(-90 1 28.0223)" stroke="#636363" stroke-width="2"/>
<rect x="7.35132" y="25.0223" width="4" height="15" rx="1" transform="rotate(-90 7.35132 25.0223)" fill="#D9D9D9"/>
<path d="M25.0178 4.12255L22.8062 6.54579C22.7307 6.62859 22.6011 6.6239 22.5204 6.53545C22.4396 6.447 22.4354 6.305 22.5109 6.2222L24.7225 3.79896C24.798 3.71616 24.9276 3.72085 25.0083 3.8093C25.0891 3.89775 25.0933 4.03975 25.0178 4.12255Z" fill="#565656"/>
<path d="M25.0932 6.62857C25.0177 6.71137 24.8881 6.70668 24.8074 6.61823L22.4448 4.02953C22.3641 3.94108 22.3598 3.79908 22.4354 3.71628C22.511 3.63349 22.6406 3.63818 22.7213 3.72662L25.0838 6.31533C25.1645 6.40377 25.1688 6.54578 25.0932 6.62857Z" fill="#565656"/>
</svg>
